<?xml version="1.0" encoding="utf-8"?>
<!-- Generator: Adobe Illustrator 17.0.0, SVG Export Plug-In . SVG Version: 6.00 Build 0)  -->
<!DOCTYPE svg PUBLIC "-//W3C//DTD SVG 1.1//EN" "http://www.w3.org/Graphics/SVG/1.1/DTD/svg11.dtd">
<svg version="1.1" id="Layer_1" xmlns="http://www.w3.org/2000/svg" xmlns:xlink="http://www.w3.org/1999/xlink" x="0px" y="0px"
	 width="240px" height="240px" viewBox="0 0 240 240" style="enable-background:new 0 0 240 240;" xml:space="preserve">
<style type="text/css">
	.st0{fill:#7289DA;}
</style>
<g>
	<path class="st0" d="M101.9,116.9c-5.7,0-10.2,5-10.2,11.1c0,6.1,4.6,11.1,10.2,11.1c5.7,0,10.2-5,10.2-11.1
		C112.2,121.9,107.6,116.9,101.9,116.9z"/>
	<path class="st0" d="M138.4,116.9c-5.7,0-10.2,5-10.2,11.1c0,6.1,4.6,11.1,10.2,11.1c5.7,0,10.2-5,10.2-11.1
		C148.6,121.9,144.1,116.9,138.4,116.9z"/>
	<path class="st0" d="M242.5,1h-245v239h245V1z M148.4,163.6c0,0-3.6-4.3-6.6-8.1c13.1-3.7,18.1-11.9,18.1-11.9
		c-4.1,2.7-8,4.6-11.5,5.9c-5,2.1-9.8,3.5-14.5,4.3c-9.6,1.8-18.4,1.3-25.9-0.1c-5.7-1.1-10.6-2.7-14.7-4.3c-2.3-0.9-4.8-2-7.3-3.4
		c-0.3-0.2-0.6-0.3-0.9-0.5c-0.2-0.1-0.3-0.2-0.4-0.3c-1.8-1-2.8-1.7-2.8-1.7s4.8,8,17.5,11.8c-3,3.8-6.7,8.3-6.7,8.3
		c-22.1-0.7-30.5-15.2-30.5-15.2c0-32.2,14.4-58.3,14.4-58.3c14.4-10.8,28.1-10.5,28.1-10.5l1,1.2c-18,5.2-26.3,13.1-26.3,13.1
		s2.2-1.2,5.9-2.9c10.7-4.7,19.2-6,22.7-6.3c0.6-0.1,1.1-0.2,1.7-0.2c6.1-0.8,13-1,20.2-0.2c9.5,1.1,19.7,3.9,30.1,9.6
		c0,0-7.9-7.5-24.9-12.7l1.4-1.6c0,0,13.7-0.3,28.1,10.5c0,0,14.4,26.1,14.4,58.3C179,148.4,170.5,162.9,148.4,163.6z"/>
</g>
</svg>
